<svg width="35" height="16" viewBox="0 0 35 16" fill="none" xmlns="http://www.w3.org/2000/svg">
<path d="M0.245 12V1.5H5.375C6.695 1.5 7.685 1.75 8.345 2.25C9.015 2.75 9.35 3.41 9.35 4.23C9.35 4.78 9.215 5.26 8.945 5.67C8.675 6.07 8.305 6.38 7.835 6.6C7.365 6.82 6.825 6.93 6.215 6.93L6.5 6.315C7.16 6.315 7.745 6.425 8.255 6.645C8.765 6.855 9.16 7.17 9.44 7.59C9.73 8.01 9.875 8.525 9.875 9.135C9.875 10.035 9.52 10.74 8.81 11.25C8.1 11.75 7.055 12 5.675 12H0.245ZM2.66 10.17H5.495C6.125 10.17 6.6 10.07 6.92 9.87C7.25 9.66 7.415 9.33 7.415 8.88C7.415 8.44 7.25 8.115 6.92 7.905C6.6 7.685 6.125 7.575 5.495 7.575H2.48V5.805H5.075C5.665 5.805 6.115 5.705 6.425 5.505C6.745 5.295 6.905 4.98 6.905 4.56C6.905 4.15 6.745 3.845 6.425 3.645C6.115 3.435 5.665 3.33 5.075 3.33H2.66V10.17ZM11.5497 12V0.869999H13.8897V12H11.5497ZM19.9014 12.12C19.0414 12.12 18.2764 11.94 17.6064 11.58C16.9464 11.22 16.4214 10.73 16.0314 10.11C15.6514 9.48 15.4614 8.765 15.4614 7.965C15.4614 7.155 15.6514 6.44 16.0314 5.82C16.4214 5.19 16.9464 4.7 17.6064 4.35C18.2764 3.99 19.0414 3.81 19.9014 3.81C20.7514 3.81 21.5114 3.99 22.1814 4.35C22.8514 4.7 23.3764 5.185 23.7564 5.805C24.1364 6.425 24.3264 7.145 24.3264 7.965C24.3264 8.765 24.1364 9.48 23.7564 10.11C23.3764 10.73 22.8514 11.22 22.1814 11.58C21.5114 11.94 20.7514 12.12 19.9014 12.12ZM19.9014 10.2C20.2914 10.2 20.6414 10.11 20.9514 9.93C21.2614 9.75 21.5064 9.495 21.6864 9.165C21.8664 8.825 21.9564 8.425 21.9564 7.965C21.9564 7.495 21.8664 7.095 21.6864 6.765C21.5064 6.435 21.2614 6.18 20.9514 6C20.6414 5.82 20.2914 5.73 19.9014 5.73C19.5114 5.73 19.1614 5.82 18.8514 6C18.5414 6.18 18.2914 6.435 18.1014 6.765C17.9214 7.095 17.8314 7.495 17.8314 7.965C17.8314 8.425 17.9214 8.825 18.1014 9.165C18.2914 9.495 18.5414 9.75 18.8514 9.93C19.1614 10.11 19.5114 10.2 19.9014 10.2ZM29.6855 15.03C28.9255 15.03 28.1905 14.935 27.4805 14.745C26.7805 14.565 26.1955 14.29 25.7255 13.92L26.6555 12.24C26.9955 12.52 27.4255 12.74 27.9455 12.9C28.4755 13.07 28.9955 13.155 29.5055 13.155C30.3355 13.155 30.9355 12.97 31.3055 12.6C31.6855 12.23 31.8755 11.68 31.8755 10.95V9.735L32.0255 7.71L31.9955 5.67V3.93H34.2155V10.65C34.2155 12.15 33.8255 13.255 33.0455 13.965C32.2655 14.675 31.1455 15.03 29.6855 15.03ZM29.3255 11.61C28.5755 11.61 27.8955 11.45 27.2855 11.13C26.6855 10.8 26.2005 10.345 25.8305 9.765C25.4705 9.175 25.2905 8.49 25.2905 7.71C25.2905 6.92 25.4705 6.235 25.8305 5.655C26.2005 5.065 26.6855 4.61 27.2855 4.29C27.8955 3.97 28.5755 3.81 29.3255 3.81C30.0055 3.81 30.6055 3.95 31.1255 4.23C31.6455 4.5 32.0505 4.925 32.3405 5.505C32.6305 6.075 32.7755 6.81 32.7755 7.71C32.7755 8.6 32.6305 9.335 32.3405 9.915C32.0505 10.485 31.6455 10.91 31.1255 11.19C30.6055 11.47 30.0055 11.61 29.3255 11.61ZM29.7905 9.69C30.2005 9.69 30.5655 9.61 30.8855 9.45C31.2055 9.28 31.4555 9.045 31.6355 8.745C31.8155 8.445 31.9055 8.1 31.9055 7.71C31.9055 7.31 31.8155 6.965 31.6355 6.675C31.4555 6.375 31.2055 6.145 30.8855 5.985C30.5655 5.815 30.2005 5.73 29.7905 5.73C29.3805 5.73 29.0155 5.815 28.6955 5.985C28.3755 6.145 28.1205 6.375 27.9305 6.675C27.7505 6.965 27.6605 7.31 27.6605 7.71C27.6605 8.1 27.7505 8.445 27.9305 8.745C28.1205 9.045 28.3755 9.28 28.6955 9.45C29.0155 9.61 29.3805 9.69 29.7905 9.69Z" fill="black"/>
</svg>
