<svg width="91" height="39" viewBox="0 0 91 39" fill="none" xmlns="http://www.w3.org/2000/svg">
<path d="M0.32 30V2H14C17.52 2 20.16 2.66666 21.92 4C23.7067 5.33333 24.6 7.09333 24.6 9.28C24.6 10.7467 24.24 12.0267 23.52 13.12C22.8 14.1867 21.8133 15.0133 20.56 15.6C19.3067 16.1867 17.8667 16.48 16.24 16.48L17 14.84C18.76 14.84 20.32 15.1333 21.68 15.72C23.04 16.28 24.0933 17.12 24.84 18.24C25.6133 19.36 26 20.7333 26 22.36C26 24.76 25.0533 26.64 23.16 28C21.2667 29.3333 18.48 30 14.8 30H0.32ZM6.76 25.12H14.32C16 25.12 17.2667 24.8533 18.12 24.32C19 23.76 19.44 22.88 19.44 21.68C19.44 20.5067 19 19.64 18.12 19.08C17.2667 18.4933 16 18.2 14.32 18.2H6.28V13.48H13.2C14.7733 13.48 15.9733 13.2133 16.8 12.68C17.6533 12.12 18.08 11.28 18.08 10.16C18.08 9.06667 17.6533 8.25333 16.8 7.72C15.9733 7.16 14.7733 6.88 13.2 6.88H6.76V25.12ZM30.4659 30V0.319998H36.7059V30H30.4659ZM52.7372 30.32C50.4439 30.32 48.4039 29.84 46.6172 28.88C44.8572 27.92 43.4572 26.6133 42.4172 24.96C41.4039 23.28 40.8972 21.3733 40.8972 19.24C40.8972 17.08 41.4039 15.1733 42.4172 13.52C43.4572 11.84 44.8572 10.5333 46.6172 9.6C48.4039 8.64 50.4439 8.16 52.7372 8.16C55.0039 8.16 57.0305 8.64 58.8172 9.6C60.6039 10.5333 62.0039 11.8267 63.0172 13.48C64.0305 15.1333 64.5372 17.0533 64.5372 19.24C64.5372 21.3733 64.0305 23.28 63.0172 24.96C62.0039 26.6133 60.6039 27.92 58.8172 28.88C57.0305 29.84 55.0039 30.32 52.7372 30.32ZM52.7372 25.2C53.7772 25.2 54.7105 24.96 55.5372 24.48C56.3639 24 57.0172 23.32 57.4972 22.44C57.9772 21.5333 58.2172 20.4667 58.2172 19.24C58.2172 17.9867 57.9772 16.92 57.4972 16.04C57.0172 15.16 56.3639 14.48 55.5372 14C54.7105 13.52 53.7772 13.28 52.7372 13.28C51.6972 13.28 50.7639 13.52 49.9372 14C49.1105 14.48 48.4439 15.16 47.9372 16.04C47.4572 16.92 47.2172 17.9867 47.2172 19.24C47.2172 20.4667 47.4572 21.5333 47.9372 22.44C48.4439 23.32 49.1105 24 49.9372 24.48C50.7639 24.96 51.6972 25.2 52.7372 25.2ZM78.8281 38.08C76.8015 38.08 74.8415 37.8267 72.9481 37.32C71.0815 36.84 69.5215 36.1067 68.2681 35.12L70.7481 30.64C71.6548 31.3867 72.8015 31.9733 74.1881 32.4C75.6015 32.8533 76.9881 33.08 78.3481 33.08C80.5615 33.08 82.1615 32.5867 83.1481 31.6C84.1615 30.6133 84.6681 29.1467 84.6681 27.2V23.96L85.0681 18.56L84.9881 13.12V8.48H90.9081V26.4C90.9081 30.4 89.8681 33.3467 87.7881 35.24C85.7081 37.1333 82.7215 38.08 78.8281 38.08ZM77.8681 28.96C75.8681 28.96 74.0548 28.5333 72.4281 27.68C70.8281 26.8 69.5348 25.5867 68.5481 24.04C67.5881 22.4667 67.1081 20.64 67.1081 18.56C67.1081 16.4533 67.5881 14.6267 68.5481 13.08C69.5348 11.5067 70.8281 10.2933 72.4281 9.44C74.0548 8.58667 75.8681 8.16 77.8681 8.16C79.6815 8.16 81.2815 8.53333 82.6681 9.28C84.0548 10 85.1348 11.1333 85.9081 12.68C86.6815 14.2 87.0681 16.16 87.0681 18.56C87.0681 20.9333 86.6815 22.8933 85.9081 24.44C85.1348 25.96 84.0548 27.0933 82.6681 27.84C81.2815 28.5867 79.6815 28.96 77.8681 28.96ZM79.1081 23.84C80.2015 23.84 81.1748 23.6267 82.0281 23.2C82.8815 22.7467 83.5481 22.12 84.0281 21.32C84.5081 20.52 84.7481 19.6 84.7481 18.56C84.7481 17.4933 84.5081 16.5733 84.0281 15.8C83.5481 15 82.8815 14.3867 82.0281 13.96C81.1748 13.5067 80.2015 13.28 79.1081 13.28C78.0148 13.28 77.0415 13.5067 76.1881 13.96C75.3348 14.3867 74.6548 15 74.1481 15.8C73.6681 16.5733 73.4281 17.4933 73.4281 18.56C73.4281 19.6 73.6681 20.52 74.1481 21.32C74.6548 22.12 75.3348 22.7467 76.1881 23.2C77.0415 23.6267 78.0148 23.84 79.1081 23.84Z" fill="white"/>
</svg>
