<svg width="67" height="13" viewBox="0 0 67 13" fill="none" xmlns="http://www.w3.org/2000/svg">
<path d="M0.245 12V1.5H4.79C5.73 1.5 6.54 1.655 7.22 1.965C7.9 2.265 8.425 2.7 8.795 3.27C9.165 3.84 9.35 4.52 9.35 5.31C9.35 6.09 9.165 6.765 8.795 7.335C8.425 7.905 7.9 8.345 7.22 8.655C6.54 8.955 5.73 9.105 4.79 9.105H1.595L2.675 8.01V12H0.245ZM2.675 8.28L1.595 7.125H4.655C5.405 7.125 5.965 6.965 6.335 6.645C6.705 6.325 6.89 5.88 6.89 5.31C6.89 4.73 6.705 4.28 6.335 3.96C5.965 3.64 5.405 3.48 4.655 3.48H1.595L2.675 2.325V8.28ZM14.7452 12.12C13.8852 12.12 13.1202 11.94 12.4502 11.58C11.7902 11.22 11.2652 10.73 10.8752 10.11C10.4952 9.48 10.3052 8.765 10.3052 7.965C10.3052 7.155 10.4952 6.44 10.8752 5.82C11.2652 5.19 11.7902 4.7 12.4502 4.35C13.1202 3.99 13.8852 3.81 14.7452 3.81C15.5952 3.81 16.3552 3.99 17.0252 4.35C17.6952 4.7 18.2202 5.185 18.6002 5.805C18.9802 6.425 19.1702 7.145 19.1702 7.965C19.1702 8.765 18.9802 9.48 18.6002 10.11C18.2202 10.73 17.6952 11.22 17.0252 11.58C16.3552 11.94 15.5952 12.12 14.7452 12.12ZM14.7452 10.2C15.1352 10.2 15.4852 10.11 15.7952 9.93C16.1052 9.75 16.3502 9.495 16.5302 9.165C16.7102 8.825 16.8002 8.425 16.8002 7.965C16.8002 7.495 16.7102 7.095 16.5302 6.765C16.3502 6.435 16.1052 6.18 15.7952 6C15.4852 5.82 15.1352 5.73 14.7452 5.73C14.3552 5.73 14.0052 5.82 13.6952 6C13.3852 6.18 13.1352 6.435 12.9452 6.765C12.7652 7.095 12.6752 7.495 12.6752 7.965C12.6752 8.425 12.7652 8.825 12.9452 9.165C13.1352 9.495 13.3852 9.75 13.6952 9.93C14.0052 10.11 14.3552 10.2 14.7452 10.2ZM20.7343 12V3.93H22.9693V6.21L22.6543 5.55C22.8943 4.98 23.2793 4.55 23.8093 4.26C24.3393 3.96 24.9843 3.81 25.7443 3.81V5.97C25.6443 5.96 25.5543 5.955 25.4743 5.955C25.3943 5.945 25.3093 5.94 25.2193 5.94C24.5793 5.94 24.0593 6.125 23.6593 6.495C23.2693 6.855 23.0743 7.42 23.0743 8.19V12H20.7343ZM30.714 12.12C29.764 12.12 29.024 11.88 28.494 11.4C27.964 10.91 27.699 10.185 27.699 9.225V2.145H30.039V9.195C30.039 9.535 30.129 9.8 30.309 9.99C30.489 10.17 30.734 10.26 31.044 10.26C31.414 10.26 31.729 10.16 31.989 9.96L32.619 11.61C32.379 11.78 32.089 11.91 31.749 12C31.419 12.08 31.074 12.12 30.714 12.12ZM26.454 5.91V4.11H32.049V5.91H26.454ZM34.2175 12V3.75C34.2175 2.84 34.4875 2.115 35.0275 1.575C35.5675 1.025 36.3375 0.749999 37.3375 0.749999C37.6775 0.749999 38.0025 0.784999 38.3125 0.855C38.6325 0.924999 38.9025 1.035 39.1225 1.185L38.5075 2.88C38.3775 2.79 38.2325 2.72 38.0725 2.67C37.9125 2.62 37.7425 2.595 37.5625 2.595C37.2225 2.595 36.9575 2.695 36.7675 2.895C36.5875 3.085 36.4975 3.375 36.4975 3.765V4.515L36.5575 5.52V12H34.2175ZM32.9725 5.91V4.11H38.5675V5.91H32.9725ZM43.4708 12.12C42.6108 12.12 41.8458 11.94 41.1758 11.58C40.5158 11.22 39.9908 10.73 39.6008 10.11C39.2208 9.48 39.0308 8.765 39.0308 7.965C39.0308 7.155 39.2208 6.44 39.6008 5.82C39.9908 5.19 40.5158 4.7 41.1758 4.35C41.8458 3.99 42.6108 3.81 43.4708 3.81C44.3208 3.81 45.0808 3.99 45.7508 4.35C46.4208 4.7 46.9458 5.185 47.3258 5.805C47.7058 6.425 47.8958 7.145 47.8958 7.965C47.8958 8.765 47.7058 9.48 47.3258 10.11C46.9458 10.73 46.4208 11.22 45.7508 11.58C45.0808 11.94 44.3208 12.12 43.4708 12.12ZM43.4708 10.2C43.8608 10.2 44.2108 10.11 44.5208 9.93C44.8308 9.75 45.0758 9.495 45.2558 9.165C45.4358 8.825 45.5258 8.425 45.5258 7.965C45.5258 7.495 45.4358 7.095 45.2558 6.765C45.0758 6.435 44.8308 6.18 44.5208 6C44.2108 5.82 43.8608 5.73 43.4708 5.73C43.0808 5.73 42.7308 5.82 42.4208 6C42.1108 6.18 41.8608 6.435 41.6708 6.765C41.4908 7.095 41.4008 7.495 41.4008 7.965C41.4008 8.425 41.4908 8.825 41.6708 9.165C41.8608 9.495 42.1108 9.75 42.4208 9.93C42.7308 10.11 43.0808 10.2 43.4708 10.2ZM49.4599 12V0.869999H51.7999V12H49.4599ZM53.9716 12V3.93H56.3116V12H53.9716ZM55.1416 2.805C54.7116 2.805 54.3616 2.68 54.0916 2.43C53.8216 2.18 53.6866 1.87 53.6866 1.5C53.6866 1.13 53.8216 0.819999 54.0916 0.57C54.3616 0.319999 54.7116 0.194999 55.1416 0.194999C55.5716 0.194999 55.9216 0.314999 56.1916 0.555C56.4616 0.785 56.5966 1.085 56.5966 1.455C56.5966 1.845 56.4616 2.17 56.1916 2.43C55.9316 2.68 55.5816 2.805 55.1416 2.805ZM62.3233 12.12C61.4633 12.12 60.6983 11.94 60.0283 11.58C59.3683 11.22 58.8433 10.73 58.4533 10.11C58.0733 9.48 57.8833 8.765 57.8833 7.965C57.8833 7.155 58.0733 6.44 58.4533 5.82C58.8433 5.19 59.3683 4.7 60.0283 4.35C60.6983 3.99 61.4633 3.81 62.3233 3.81C63.1733 3.81 63.9333 3.99 64.6033 4.35C65.2733 4.7 65.7983 5.185 66.1783 5.805C66.5583 6.425 66.7483 7.145 66.7483 7.965C66.7483 8.765 66.5583 9.48 66.1783 10.11C65.7983 10.73 65.2733 11.22 64.6033 11.58C63.9333 11.94 63.1733 12.12 62.3233 12.12ZM62.3233 10.2C62.7133 10.2 63.0633 10.11 63.3733 9.93C63.6833 9.75 63.9283 9.495 64.1083 9.165C64.2883 8.825 64.3783 8.425 64.3783 7.965C64.3783 7.495 64.2883 7.095 64.1083 6.765C63.9283 6.435 63.6833 6.18 63.3733 6C63.0633 5.82 62.7133 5.73 62.3233 5.73C61.9333 5.73 61.5833 5.82 61.2733 6C60.9633 6.18 60.7133 6.435 60.5233 6.765C60.3433 7.095 60.2533 7.495 60.2533 7.965C60.2533 8.425 60.3433 8.825 60.5233 9.165C60.7133 9.495 60.9633 9.75 61.2733 9.93C61.5833 10.11 61.9333 10.2 62.3233 10.2Z" fill="#0066FF"/>
</svg>
